<svg xmlns="http://www.w3.org/2000/svg" style="display:none">
  <symbol id="home" viewBox="0 0 24 24" stroke="currentColor" fill="none" stroke-width="2" stroke-linecap="round" stroke-linejoin="round">
    <path d="M3 11l9-8 9 8" />
    <path d="M5 10v10a1 1 0 0 0 1 1h4v-6h4v6h4a1 1 0 0 0 1-1V10" />
  </symbol>
  <symbol id="pen" viewBox="0 0 24 24" stroke="currentColor" fill="none" stroke-width="2" stroke-linecap="round" stroke-linejoin="round">
    <path d="M12 20h9" />
    <path d="M16.5 3.5a2.121 2.121 0 1 1 3 3L7 19l-4 1 1-4Z" />
  </symbol>
  <symbol id="palette" viewBox="0 0 24 24" stroke="currentColor" fill="none" stroke-width="2" stroke-linecap="round" stroke-linejoin="round">
    <path d="M12 22a10 10 0 1 1 10-10c0 3-1 5-4 5h-1a2 2 0 0 0-2 2v1c0 3-2 4-3 4Z" />
    <circle cx="8.5" cy="10.5" r="1.5" />
    <circle cx="12" cy="7.5" r="1.5" />
    <circle cx="16" cy="10.5" r="1.5" />
  </symbol>
  <symbol id="search" viewBox="0 0 24 24" stroke="currentColor" fill="none" stroke-width="2" stroke-linecap="round" stroke-linejoin="round">
    <circle cx="11" cy="11" r="7" />
    <line x1="21" y1="21" x2="16.65" y2="16.65" />
  </symbol>
  <symbol id="spark" viewBox="0 0 24 24" stroke="currentColor" fill="none" stroke-width="2" stroke-linecap="round" stroke-linejoin="round">
    <path d="M12 2 9 8l-6 3 6 3 3 6 3-6 6-3-6-3-3-6Z" />
  </symbol>
  <symbol id="x" viewBox="0 0 24 24" stroke="currentColor" fill="none" stroke-width="2" stroke-linecap="round" stroke-linejoin="round">
    <path d="M4 4l16 16M20 4 4 20" />
  </symbol>
  <symbol id="instagram" viewBox="0 0 24 24" stroke="currentColor" fill="none" stroke-width="2" stroke-linecap="round" stroke-linejoin="round">
    <rect x="4" y="4" width="16" height="16" rx="4" />
    <circle cx="12" cy="12" r="4" />
    <circle cx="17.5" cy="6.5" r="0.8" fill="currentColor" stroke="none" />
  </symbol>
  <symbol id="linkedin" viewBox="0 0 24 24" stroke="currentColor" fill="none" stroke-width="2" stroke-linecap="round" stroke-linejoin="round">
    <path d="M6 9v10" />
    <circle cx="6" cy="6" r="1.2" />
    <path d="M10 19v-7.5a1.5 1.5 0 0 1 3 0V19M16 19v-5.5a2.5 2.5 0 0 1 5 0V19" />
  </symbol>
</svg>
