<svg xmlns="http://www.w3.org/2000/svg" style="display:none">

  <!-- Pen: writing / poetry / default blog icon -->
  <symbol id="pen" viewBox="0 0 24 24" fill="none" stroke="currentColor" stroke-width="2" stroke-linecap="round" stroke-linejoin="round">
    <path d="M17 3a2.83 2.83 0 1 1 4 4L7.5 20.5 2 22l1.5-5.5Z"/>
    <path d="m15 5 4 4"/>
  </symbol>

  <!-- Spark: resilience / energy -->
  <symbol id="spark" viewBox="0 0 24 24" fill="none" stroke="currentColor" stroke-width="2" stroke-linecap="round" stroke-linejoin="round">
    <path d="M13 2 3 14h9l-1 8 10-12h-9l1-8z"/>
  </symbol>

  <!-- Palette: art / wisdom -->
  <symbol id="palette" viewBox="0 0 24 24" fill="none" stroke="currentColor" stroke-width="2" stroke-linecap="round" stroke-linejoin="round">
    <circle cx="13.5" cy="6.5" r="0.5" fill="currentColor"/>
    <circle cx="17.5" cy="10.5" r="0.5" fill="currentColor"/>
    <circle cx="8.5" cy="7.5" r="0.5" fill="currentColor"/>
    <circle cx="6.5" cy="12.5" r="0.5" fill="currentColor"/>
    <path d="M12 2C6.5 2 2 6.5 2 12s4.5 10 10 10c.93 0 1.5-.71 1.5-1.5 0-.39-.15-.74-.39-1.01-.24-.27-.38-.62-.38-1.01 0-.83.67-1.5 1.5-1.5H16c3.31 0 6-2.69 6-6 0-5.52-4.48-9.96-10-9.98z"/>
  </symbol>

  <!-- Home: adventure / default creative -->
  <symbol id="home" viewBox="0 0 24 24" fill="none" stroke="currentColor" stroke-width="2" stroke-linecap="round" stroke-linejoin="round">
    <path d="m3 9 9-7 9 7v11a2 2 0 0 1-2 2H5a2 2 0 0 1-2-2z"/>
    <polyline points="9 22 9 12 15 12 15 22"/>
  </symbol>

  <!-- X (Twitter) social icon -->
  <symbol id="x" viewBox="0 0 24 24" fill="currentColor" stroke="none">
    <path d="M18.244 2.25h3.308l-7.227 8.26 8.502 11.24H16.17l-5.214-6.817L4.99 21.75H1.68l7.73-8.835L1.254 2.25H8.08l4.713 6.231zm-1.161 17.52h1.833L7.084 4.126H5.117z"/>
  </symbol>

  <!-- Instagram social icon -->
  <symbol id="instagram" viewBox="0 0 24 24" fill="none" stroke="currentColor" stroke-width="2" stroke-linecap="round" stroke-linejoin="round">
    <rect x="2" y="2" width="20" height="20" rx="5"/>
    <circle cx="12" cy="12" r="5"/>
    <circle cx="17.5" cy="6.5" r="1.5" fill="currentColor" stroke="none"/>
  </symbol>

  <!-- LinkedIn social icon -->
  <symbol id="linkedin" viewBox="0 0 24 24" fill="currentColor" stroke="none">
    <path d="M20.447 20.452h-3.554v-5.569c0-1.328-.027-3.037-1.852-3.037-1.853 0-2.136 1.445-2.136 2.939v5.667H9.351V9h3.414v1.561h.046c.477-.9 1.637-1.85 3.37-1.85 3.601 0 4.267 2.37 4.267 5.455v6.286zM5.337 7.433a2.062 2.062 0 0 1-2.063-2.065 2.064 2.064 0 1 1 2.063 2.065zm1.782 13.019H3.555V9h3.564v11.452zM22.225 0H1.771C.792 0 0 .774 0 1.729v20.542C0 23.227.792 24 1.771 24h20.451C23.2 24 24 23.227 24 22.271V1.729C24 .774 23.2 0 22.222 0h.003z"/>
  </symbol>

  <!-- Search icon -->
  <symbol id="search" viewBox="0 0 24 24" fill="none" stroke="currentColor" stroke-width="2" stroke-linecap="round" stroke-linejoin="round">
    <circle cx="11" cy="11" r="8"/>
    <path d="m21 21-4.3-4.3"/>
  </symbol>

  <!-- Lock: privacy / security tags -->
  <symbol id="lock" viewBox="0 0 24 24" fill="none" stroke="currentColor" stroke-width="2" stroke-linecap="round" stroke-linejoin="round">
    <rect width="18" height="11" x="3" y="11" rx="2"/>
    <path d="M7 11V7a5 5 0 0 1 10 0v4"/>
  </symbol>

  <!-- Book: guide / tutorial tags -->
  <symbol id="book" viewBox="0 0 24 24" fill="none" stroke="currentColor" stroke-width="2" stroke-linecap="round" stroke-linejoin="round">
    <path d="M4 19.5v-15A2.5 2.5 0 0 1 6.5 2H20v20H6.5a2.5 2.5 0 0 1 0-5H20"/>
  </symbol>

  <!-- Globe: rss / website tags -->
  <symbol id="globe" viewBox="0 0 24 24" fill="none" stroke="currentColor" stroke-width="2" stroke-linecap="round" stroke-linejoin="round">
    <circle cx="12" cy="12" r="10"/>
    <path d="M12 2a14.5 14.5 0 0 0 0 20 14.5 14.5 0 0 0 0-20"/>
    <path d="M2 12h20"/>
  </symbol>

</svg>
