<svg fill="#0D131A" viewBox="0 0 160.931 17.273" height="100%" width="100%" xmlns="http://www.w3.org/2000/svg"><path preserveAspectRatio="none" d="M0 0.46L13.12 0.46L13.12 3.00L8.12 3.00L8.12 17.09L5.03 17.09L5.03 3.00L0 3.00L0 0.46ZM17.77 17.09L14.93 17.09L14.93 0L17.77 0L17.77 6.57Q18.46 5.91 19.29 5.51Q20.11 5.11 21.23 5.11L21.23 5.11Q22.20 5.11 22.94 5.43Q23.69 5.76 24.19 6.35Q24.69 6.95 24.95 7.77Q25.21 8.59 25.21 9.58L25.21 9.58L25.21 17.09L22.37 17.09L22.37 9.58Q22.37 8.50 21.87 7.91Q21.37 7.31 20.37 7.31L20.37 7.31Q19.63 7.31 18.99 7.65Q18.34 7.98 17.77 8.56L17.77 8.56L17.77 17.09ZM32.88 5.11L32.88 5.11Q33.99 5.11 34.93 5.46Q35.87 5.82 36.55 6.50Q37.23 7.19 37.61 8.18Q37.98 9.18 37.98 10.45L37.98 10.45Q37.98 10.78 37.96 10.99Q37.93 11.20 37.85 11.32Q37.78 11.44 37.65 11.49Q37.52 11.55 37.33 11.55L37.33 11.55L30.04 11.55Q30.16 13.36 31.02 14.21Q31.87 15.06 33.27 15.06L33.27 15.06Q33.96 15.06 34.46 14.90Q34.96 14.74 35.33 14.55Q35.71 14.35 35.99 14.19Q36.27 14.03 36.54 14.03L36.54 14.03Q36.71 14.03 36.83 14.10Q36.96 14.17 37.05 14.29L37.05 14.29L37.88 15.33Q37.41 15.88 36.82 16.26Q36.24 16.63 35.60 16.85Q34.96 17.08 34.30 17.17Q33.64 17.26 33.02 17.26L33.02 17.26Q31.79 17.26 30.73 16.85Q29.67 16.45 28.89 15.65Q28.11 14.85 27.66 13.67Q27.21 12.49 27.21 10.94L27.21 10.94Q27.21 9.73 27.60 8.67Q27.99 7.60 28.72 6.81Q29.45 6.03 30.50 5.57Q31.56 5.11 32.88 5.11ZM32.94 7.14L32.94 7.14Q31.69 7.14 30.99 7.84Q30.29 8.54 30.10 9.83L30.10 9.83L35.43 9.83Q35.43 9.28 35.28 8.79Q35.13 8.30 34.82 7.93Q34.51 7.57 34.04 7.35Q33.57 7.14 32.94 7.14ZM43.49 0.46L56.61 0.46L56.61 3.00L51.61 3.00L51.61 17.09L48.52 17.09L48.52 3.00L43.49 3.00L43.49 0.46ZM60.95 5.11L60.95 5.11Q62.07 5.11 63.00 5.46Q63.94 5.82 64.62 6.50Q65.30 7.19 65.68 8.18Q66.06 9.18 66.06 10.45L66.06 10.45Q66.06 10.78 66.03 10.99Q66.00 11.20 65.92 11.32Q65.85 11.44 65.72 11.49Q65.60 11.55 65.40 11.55L65.40 11.55L58.11 11.55Q58.24 13.36 59.09 14.21Q59.94 15.06 61.34 15.06L61.34 15.06Q62.03 15.06 62.53 14.90Q63.03 14.74 63.41 14.55Q63.78 14.35 64.06 14.19Q64.34 14.03 64.61 14.03L64.61 14.03Q64.78 14.03 64.91 14.10Q65.03 14.17 65.12 14.29L65.12 14.29L65.95 15.33Q65.48 15.88 64.89 16.26Q64.31 16.63 63.67 16.85Q63.03 17.08 62.37 17.17Q61.71 17.26 61.09 17.26L61.09 17.26Q59.86 17.26 58.80 16.85Q57.74 16.45 56.96 15.65Q56.18 14.85 55.73 13.67Q55.28 12.49 55.28 10.94L55.28 10.94Q55.28 9.73 55.67 8.67Q56.06 7.60 56.79 6.81Q57.52 6.03 58.58 5.57Q59.63 5.11 60.95 5.11ZM61.01 7.14L61.01 7.14Q59.77 7.14 59.06 7.84Q58.36 8.54 58.17 9.83L58.17 9.83L63.50 9.83Q63.50 9.28 63.35 8.79Q63.20 8.30 62.89 7.93Q62.58 7.57 62.11 7.35Q61.64 7.14 61.01 7.14ZM77.41 6.75L76.66 7.79Q76.53 7.95 76.41 8.04Q76.29 8.13 76.06 8.13L76.06 8.13Q75.84 8.13 75.64 8.00Q75.43 7.87 75.14 7.70Q74.85 7.53 74.46 7.40Q74.06 7.27 73.47 7.27L73.47 7.27Q72.73 7.27 72.16 7.54Q71.60 7.81 71.23 8.31Q70.85 8.82 70.67 9.54Q70.48 10.26 70.48 11.17L70.48 11.17Q70.48 12.11 70.68 12.85Q70.89 13.58 71.27 14.08Q71.64 14.58 72.19 14.84Q72.73 15.10 73.40 15.10L73.40 15.10Q74.08 15.10 74.50 14.93Q74.92 14.77 75.21 14.56Q75.50 14.36 75.71 14.20Q75.92 14.03 76.19 14.03L76.19 14.03Q76.53 14.03 76.70 14.29L76.70 14.29L77.52 15.33Q77.05 15.88 76.50 16.26Q75.95 16.63 75.35 16.85Q74.76 17.08 74.13 17.17Q73.50 17.26 72.88 17.26L72.88 17.26Q71.78 17.26 70.82 16.85Q69.85 16.45 69.13 15.66Q68.41 14.88 67.99 13.75Q67.57 12.62 67.57 11.17L67.57 11.17Q67.57 9.87 67.95 8.76Q68.32 7.65 69.05 6.84Q69.77 6.03 70.84 5.57Q71.91 5.11 73.30 5.11L73.30 5.11Q74.62 5.11 75.62 5.53Q76.61 5.96 77.41 6.75L77.41 6.75ZM82.18 17.09L79.34 17.09L79.34 0L82.18 0L82.18 6.57Q82.87 5.91 83.70 5.51Q84.52 5.11 85.64 5.11L85.64 5.11Q86.61 5.11 87.35 5.43Q88.10 5.76 88.60 6.35Q89.10 6.95 89.36 7.77Q89.62 8.59 89.62 9.58L89.62 9.58L89.62 17.09L86.78 17.09L86.78 9.58Q86.78 8.50 86.28 7.91Q85.78 7.31 84.78 7.31L84.78 7.31Q84.04 7.31 83.40 7.65Q82.75 7.98 82.18 8.56L82.18 8.56L82.18 17.09ZM98.85 17.09L92.58 17.09L92.58 0.46L98.31 0.46Q99.95 0.46 101.10 0.77Q102.26 1.08 103.00 1.66Q103.74 2.23 104.09 3.05Q104.43 3.86 104.43 4.89L104.43 4.89Q104.43 5.47 104.26 6.01Q104.09 6.54 103.72 7.01Q103.36 7.47 102.80 7.85Q102.25 8.23 101.48 8.50L101.48 8.50Q104.90 9.27 104.90 12.20L104.90 12.20Q104.90 13.26 104.50 14.16Q104.10 15.05 103.33 15.70Q102.56 16.35 101.43 16.72Q100.30 17.09 98.85 17.09L98.85 17.09ZM98.80 9.80L95.67 9.80L95.67 14.67L98.81 14.67Q99.67 14.67 100.25 14.47Q100.83 14.26 101.18 13.91Q101.53 13.57 101.69 13.11Q101.84 12.65 101.84 12.13L101.84 12.13Q101.84 11.59 101.67 11.16Q101.50 10.73 101.13 10.42Q100.76 10.12 100.19 9.96Q99.61 9.80 98.80 9.80L98.80 9.80ZM95.67 2.85L95.67 7.66L98.14 7.66Q99.72 7.66 100.53 7.08Q101.35 6.51 101.35 5.26L101.35 5.26Q101.35 3.96 100.61 3.40Q99.88 2.85 98.31 2.85L98.31 2.85L95.67 2.85ZM107.58 5.29L110.42 5.29L110.42 17.09L107.58 17.09L107.58 5.29ZM110.85 1.85L110.85 1.85Q110.85 2.22 110.70 2.54Q110.55 2.86 110.30 3.10Q110.05 3.35 109.72 3.49Q109.39 3.63 109.01 3.63L109.01 3.63Q108.64 3.63 108.31 3.49Q107.98 3.35 107.74 3.10Q107.50 2.86 107.36 2.54Q107.21 2.22 107.21 1.85L107.21 1.85Q107.21 1.47 107.36 1.14Q107.50 0.80 107.74 0.56Q107.98 0.32 108.31 0.18Q108.64 0.03 109.01 0.03L109.01 0.03Q109.39 0.03 109.72 0.18Q110.05 0.32 110.30 0.56Q110.55 0.80 110.70 1.14Q110.85 1.47 110.85 1.85ZM121.28 6.57L120.64 7.59Q120.52 7.77 120.39 7.85Q120.27 7.92 120.07 7.92L120.07 7.92Q119.86 7.92 119.63 7.81Q119.39 7.69 119.08 7.55Q118.77 7.41 118.38 7.29Q117.98 7.18 117.44 7.18L117.44 7.18Q116.60 7.18 116.12 7.53Q115.63 7.89 115.63 8.46L115.63 8.46Q115.63 8.84 115.88 9.10Q116.13 9.36 116.54 9.56Q116.94 9.75 117.46 9.91Q117.98 10.06 118.52 10.25Q119.06 10.43 119.58 10.67Q120.09 10.90 120.50 11.26Q120.91 11.63 121.16 12.13Q121.41 12.64 121.41 13.35L121.41 13.35Q121.41 14.20 121.09 14.92Q120.78 15.64 120.19 16.16Q119.59 16.69 118.71 16.98Q117.83 17.27 116.69 17.27L116.69 17.27Q116.08 17.27 115.50 17.16Q114.92 17.05 114.38 16.86Q113.85 16.66 113.40 16.40Q112.94 16.13 112.60 15.82L112.60 15.82L113.25 14.74Q113.38 14.55 113.55 14.44Q113.72 14.34 113.99 14.34L113.99 14.34Q114.25 14.34 114.49 14.49Q114.72 14.64 115.03 14.81Q115.34 14.98 115.76 15.13Q116.18 15.28 116.83 15.28L116.83 15.28Q117.33 15.28 117.70 15.16Q118.06 15.04 118.29 14.85Q118.53 14.65 118.64 14.39Q118.75 14.13 118.75 13.86L118.75 13.86Q118.75 13.44 118.50 13.18Q118.25 12.91 117.85 12.72Q117.44 12.52 116.91 12.37Q116.39 12.21 115.85 12.03Q115.30 11.84 114.78 11.60Q114.25 11.35 113.84 10.97Q113.44 10.59 113.19 10.04Q112.94 9.49 112.94 8.71L112.94 8.71Q112.94 7.98 113.23 7.33Q113.52 6.67 114.07 6.18Q114.63 5.69 115.47 5.40Q116.30 5.11 117.39 5.11L117.39 5.11Q118.61 5.11 119.61 5.51Q120.61 5.91 121.28 6.57L121.28 6.57ZM132.72 6.75L131.97 7.79Q131.85 7.95 131.73 8.04Q131.61 8.13 131.38 8.13L131.38 8.13Q131.16 8.13 130.95 8.00Q130.74 7.87 130.46 7.70Q130.17 7.53 129.77 7.40Q129.38 7.27 128.79 7.27L128.79 7.27Q128.04 7.27 127.48 7.54Q126.91 7.81 126.54 8.31Q126.17 8.82 125.98 9.54Q125.80 10.26 125.80 11.17L125.80 11.17Q125.80 12.11 126.00 12.85Q126.20 13.58 126.58 14.08Q126.96 14.58 127.50 14.84Q128.04 15.10 128.72 15.10L128.72 15.10Q129.40 15.10 129.82 14.93Q130.24 14.77 130.53 14.56Q130.81 14.36 131.03 14.20Q131.24 14.03 131.50 14.03L131.50 14.03Q131.85 14.03 132.02 14.29L132.02 14.29L132.84 15.33Q132.37 15.88 131.81 16.26Q131.26 16.63 130.67 16.85Q130.08 17.08 129.44 17.17Q128.81 17.26 128.19 17.26L128.19 17.26Q127.10 17.26 126.13 16.85Q125.17 16.45 124.45 15.66Q123.73 14.88 123.31 13.75Q122.89 12.62 122.89 11.17L122.89 11.17Q122.89 9.87 123.26 8.76Q123.64 7.65 124.36 6.84Q125.09 6.03 126.16 5.57Q127.22 5.11 128.62 5.11L128.62 5.11Q129.94 5.11 130.93 5.53Q131.93 5.96 132.72 6.75L132.72 6.75ZM134.41 5.29L137.25 5.29L137.25 12.79Q137.25 13.87 137.75 14.46Q138.25 15.05 139.25 15.05L139.25 15.05Q139.99 15.05 140.63 14.73Q141.28 14.40 141.85 13.82L141.85 13.82L141.85 5.29L144.69 5.29L144.69 17.09L142.96 17.09Q142.40 17.09 142.23 16.57L142.23 16.57L142.04 15.63Q141.67 16.00 141.28 16.30Q140.89 16.61 140.44 16.82Q140.00 17.03 139.49 17.15Q138.98 17.27 138.39 17.27L138.39 17.27Q137.43 17.27 136.68 16.95Q135.94 16.62 135.44 16.02Q134.93 15.42 134.67 14.60Q134.41 13.78 134.41 12.79L134.41 12.79L134.41 5.29ZM147.91 5.29L150.75 5.29L150.75 17.09L147.91 17.09L147.91 5.29ZM151.18 1.85L151.18 1.85Q151.18 2.22 151.03 2.54Q150.88 2.86 150.63 3.10Q150.39 3.35 150.05 3.49Q149.72 3.63 149.34 3.63L149.34 3.63Q148.97 3.63 148.64 3.49Q148.32 3.35 148.07 3.10Q147.83 2.86 147.69 2.54Q147.55 2.22 147.55 1.85L147.55 1.85Q147.55 1.47 147.69 1.14Q147.83 0.80 148.07 0.56Q148.32 0.32 148.64 0.18Q148.97 0.03 149.34 0.03L149.34 0.03Q149.72 0.03 150.05 0.18Q150.39 0.32 150.63 0.56Q150.88 0.80 151.03 1.14Q151.18 1.47 151.18 1.85ZM157.84 17.27L157.84 17.27Q156.31 17.27 155.48 16.40Q154.65 15.54 154.65 14.01L154.65 14.01L154.65 7.42L153.46 7.42Q153.23 7.42 153.06 7.27Q152.89 7.12 152.89 6.82L152.89 6.82L152.89 5.69L154.79 5.38L155.39 2.16Q155.43 1.93 155.60 1.81Q155.77 1.68 156.02 1.68L156.02 1.68L157.49 1.68L157.49 5.39L160.60 5.39L160.60 7.42L157.49 7.42L157.49 13.81Q157.49 14.36 157.77 14.67Q158.04 14.98 158.50 14.98L158.50 14.98Q158.77 14.98 158.95 14.92Q159.13 14.86 159.26 14.79Q159.39 14.72 159.49 14.66Q159.60 14.59 159.70 14.59L159.70 14.59Q159.83 14.59 159.91 14.66Q159.99 14.72 160.08 14.85L160.08 14.85L160.93 16.23Q160.31 16.74 159.51 17.01Q158.70 17.27 157.84 17.27Z"/></svg>